<svg width="27" height="24" viewBox="0 0 27 24" fill="none" xmlns="http://www.w3.org/2000/svg">
<path d="M21.1992 7.875C21.0447 9.78141 19.4537 11.25 17.7188 11.25C15.9838 11.25 14.3902 9.78188 14.2383 7.875C14.0801 5.89172 15.6289 4.5 17.7188 4.5C19.8086 4.5 21.3574 5.92781 21.1992 7.875Z" stroke="black" stroke-width="2" stroke-linecap="round" stroke-linejoin="round"/>
<path d="M17.7188 14.25C14.2821 14.25 10.9772 15.7673 10.1493 18.7223C10.0396 19.1133 10.3154 19.5 10.7673 19.5H24.6708C25.1227 19.5 25.3969 19.1133 25.2888 18.7223C24.4609 15.72 21.156 14.25 17.7188 14.25Z" stroke="black" stroke-width="2" stroke-miterlimit="10"/>
<path d="M10.5468 8.71594C10.4234 10.2384 9.13777 11.4375 7.75191 11.4375C6.36605 11.4375 5.07827 10.2389 4.95699 8.71594C4.83095 7.13203 6.08234 6 7.75191 6C9.42148 6 10.6729 7.16109 10.5468 8.71594Z" stroke="black" stroke-width="2" stroke-linecap="round" stroke-linejoin="round"/>
<path d="M10.8633 14.3438C9.91145 13.9561 8.86309 13.807 7.75198 13.807C5.00979 13.807 2.3678 15.0188 1.70598 17.3789C1.61897 17.6911 1.8394 18 2.20011 18H8.12112" stroke="black" stroke-width="2" stroke-miterlimit="10" stroke-linecap="round"/>
</svg>
