<?xml version="1.0" encoding="UTF-8" standalone="no"?>
<!-- Created with Inkscape (http://www.inkscape.org/) -->

<svg
   width="210mm"
   height="297mm"
   viewBox="0 0 210 297"
   version="1.1"
   id="svg5"
   inkscape:version="1.2.1 (9c6d41e410, 2022-07-14)"
   sodipodi:docname="logo.svg"
   xmlns:inkscape="http://www.inkscape.org/namespaces/inkscape"
   xmlns:sodipodi="http://sodipodi.sourceforge.net/DTD/sodipodi-0.dtd"
   xmlns="http://www.w3.org/2000/svg"
   xmlns:svg="http://www.w3.org/2000/svg">
  <sodipodi:namedview
     id="namedview7"
     pagecolor="#ffffff"
     bordercolor="#000000"
     borderopacity="0.25"
     inkscape:showpageshadow="2"
     inkscape:pageopacity="0.0"
     inkscape:pagecheckerboard="0"
     inkscape:deskcolor="#d1d1d1"
     inkscape:document-units="mm"
     showgrid="false"
     inkscape:zoom="2.9433782"
     inkscape:cx="459.33615"
     inkscape:cy="456.10856"
     inkscape:window-width="1920"
     inkscape:window-height="1013"
     inkscape:window-x="-9"
     inkscape:window-y="-9"
     inkscape:window-maximized="1"
     inkscape:current-layer="layer1" />
  <defs
     id="defs2" />
  <g
     inkscape:label="Слой 1"
     inkscape:groupmode="layer"
     id="layer1">
    <path
       style="fill:#000000;stroke-width:0.213941"
       d="m 60.605648,132.39996 58.162262,4.00313"
       id="path115" />
    <path
       style="fill:none;fill-opacity:1;stroke:#000000;stroke-width:0.0922221;stroke-opacity:1"
       d="m 72.837352,117.40353 -2.76726,-2.85655 c -1.197751,0.11148 -1.670412,-1.05734 -1.290778,-2.35938 0.675961,-1.48694 5.813732,-1.21216 5.833289,0.49105 -0.31657,0.57366 -0.586383,1.19518 -1.522461,1.1348 l 2.119386,1.44186 2.160588,-1.18799 c -1.359508,-0.32883 -1.313817,-0.71174 -1.676749,-1.25306 -0.09746,-1.36196 3.788294,-2.74933 5.780335,0.12277 0.277318,0.6718 -0.02541,1.28177 -0.771242,1.84449 l -3.114966,2.46642 3.353758,3.63788 c 0.45462,0.37466 1.550347,1.01893 0.184868,2.41306 -0.639645,0.50856 -3.206352,1.87754 -4.534707,-0.23603 -0.606329,-0.66969 -0.178145,-1.17715 0.205796,-1.80016 l -1.543484,-0.84581 -1.504758,1.27315 c 0.554911,0.30562 1.022864,0.88081 0.619892,1.56759 -1.682812,1.6713 -4.370725,1.35408 -5.273925,-0.38876 -0.458174,-1.21192 0.578657,-1.60844 1.410218,-1.91954 l 2.312426,-3.51887"
       id="path121"
       sodipodi:nodetypes="ccccccccccccccccccccc" />
    <path
       style="fill:none;stroke:#000000;stroke-width:0.0922221"
       d="m 74.996439,113.86384 -0.09596,0.83888 c 0.37073,0.0831 0.606976,-0.003 0.743686,-0.0204 l -0.263889,-0.79796 0.527777,-0.0409 v -0.34784 c -0.503787,-0.15651 -1.007574,-0.11493 -1.511362,0 v 0.38876 z"
       id="path16136"
       sodipodi:nodetypes="ccccccccc" />
    <path
       style="fill:none;stroke:#000000;stroke-width:0.0922221"
       d="m 74.783332,121.33816 c -0.04654,0.29539 0.003,0.59589 0.03598,0.89128 0.200036,0.0446 0.676946,0.0638 1.047491,0 v -0.24958 c -0.251118,-0.0252 -0.506129,-0.0421 -0.788798,0 v -0.19893 c 0.268263,0.0234 0.518931,0.009 0.771834,0 v -0.22787 c -0.252946,-0.0268 -0.508009,-0.047 -0.784557,0 v -0.20255 c 0.264517,0.0376 0.523777,0.0304 0.780316,0 v -0.29659 c -0.340682,-0.0731 -0.681364,-0.0408 -1.022044,0 -0.05211,0.0961 -0.0404,0.26957 -0.04323,0.32261 z"
       id="path16140"
       sodipodi:nodetypes="ccccccccccccccc" />
  </g>
</svg>
