<svg width="26" height="21" viewBox="0 0 26 21" fill="none" xmlns="http://www.w3.org/2000/svg">
<path d="M1 6.65817V19.4659C1 19.5577 1.04515 19.6457 1.12553 19.7106C1.2059 19.7755 1.31491 19.812 1.42857 19.812H8.71429V6.65817C8.71429 6.47455 8.62398 6.29846 8.46323 6.16863C8.30249 6.0388 8.08447 5.96586 7.85714 5.96586H1.85714C1.62981 5.96586 1.4118 6.0388 1.25105 6.16863C1.09031 6.29846 1 6.47455 1 6.65817V6.65817ZM16.4286 1.81201H9.57143C9.3441 1.81201 9.12608 1.88495 8.96534 2.01478C8.80459 2.14462 8.71429 2.32071 8.71429 2.50432V19.812H17.2857V2.50432C17.2857 2.32071 17.1954 2.14462 17.0347 2.01478C16.8739 1.88495 16.6559 1.81201 16.4286 1.81201V1.81201ZM24.1429 8.73509H18.1429C17.9155 8.73509 17.6975 8.80803 17.5368 8.93786C17.376 9.06769 17.2857 9.24379 17.2857 9.4274V19.812H24.5714C24.6851 19.812 24.7941 19.7755 24.8745 19.7106C24.9548 19.6457 25 19.5577 25 19.4659V9.4274C25 9.24379 24.9097 9.06769 24.7489 8.93786C24.5882 8.80803 24.3702 8.73509 24.1429 8.73509Z" stroke="black" stroke-width="2" stroke-linecap="round" stroke-linejoin="round"/>
</svg>
